<?xml version="1.0"?>
<svg width="373" height="97.5" xmlns="http://www.w3.org/2000/svg" xmlns:svg="http://www.w3.org/2000/svg" enable-background="new 0 0 373 97.5" version="1.1" xml:space="preserve">
 <linearGradient id="SVGID_1_" x1="0.61" x2="0.16" y1="0.88" y2="0.24">
  <stop offset="0" stop-color="#003865"/>
  <stop offset="1" stop-color="#87B3C0"/>
 </linearGradient>
 <g class="layer">
  <title>Layer 1</title>
  <path d="m4.79,46.31l23.18,40.15l1.04,-0.02l2.49,-4.5l-23.7,-41.05l-3.01,5.42zm37.04,16.99l-23.7,-41.05l-3,5.42l23.7,41.06l3,-5.43zm10.33,-18.64l-23.7,-41.05l-3,5.42l23.7,41.06l3,-5.43zm-5.16,9.32l-23.7,-41.05l-3.01,5.42l23.7,41.06l3.01,-5.43zm12.88,14.68l3.01,-5.43l-2.55,-4.4l-2.89,5.61l2.43,4.22zm-5.29,-9.18l3,-5.42l-3.46,-5.99l-3.05,5.35l3.51,6.06zm-8.54,3.49l3.37,5.84l3,-5.43l-3.37,-5.84l-3,5.43zm18.83,3.71l-3.15,5.18l3.38,5.86l3.01,-5.42l-3.24,-5.62zm-51.92,-35.11l-3,5.42l23.7,41.06l3.01,-5.43l-23.71,-41.05zm41.81,35.87l-3.05,5.34l2.99,5.2l3.01,-5.43l-2.95,-5.11zm16.15,9.71l-3.2,5.09l2.02,3.5l1.45,-0.03l2.29,-4.13l-2.56,-4.43zm-14.23,4.25l2.61,4.52l1.28,-0.02l2.37,-4.28l-3.11,-5.39l-3.15,5.17zm-9.69,1.48l1.86,3.22l1.37,-0.02l2.32,-4.2l-2.36,-4.11l-3.19,5.11zm-11.22,-1.15l2.63,4.55l1.33,-0.02l2.35,-4.24l-3.21,-5.56l-3.1,5.27zm8.75,-13.76l-3.36,4.82l3.08,5.33l3.01,-5.42l-2.73,-4.73z" fill="url(#SVGID_1_)" id="svg_1"/>
  <path d="m85.93,26.8l-34.57,62.37l6.13,-0.1l31.54,-56.9l-3.1,-5.37zm-10.68,-18.42l-44.98,81.16l6.13,-0.11l41.96,-75.69l-3.11,-5.36zm5.34,9.21l-39.78,71.77l6.14,-0.11l36.75,-66.3l-3.11,-5.36zm10.68,18.43l-29.37,52.97l6.14,-0.11l26.33,-47.5l-3.1,-5.36zm5.33,9.21l-24.15,43.58l6.13,-0.11l21.1,-38.16l-3.08,-5.31z" fill="#87B3C0" id="svg_2"/>
  <g id="svg_3" transform="matrix(1 0 0 1 0 0)">
   <path d="m125.07,38.98l23.5,0l0,5.39l-17.16,0l0,8l14.33,0l0,5.22l-14.33,0l0,7.15l18.12,0l0,5.4l-24.46,0l0,-31.16z" fill="#003865" id="svg_4"/>
   <path d="m154.41,57.85l0,-18.87l6.43,0l0,17.37c0,6.01 2.33,8.48 7.44,8.48s7.48,-2.47 7.48,-8.48l0,-17.37l6.43,0l0,18.87c0,8.53 -4.65,12.9 -13.91,12.9c-9.08,0 -13.87,-4.37 -13.87,-12.9z" fill="#003865" id="svg_5"/>
   <path d="m208.61,70.14l-6.39,-8.84l-0.87,0l-5.75,0l0,8.84l-6.43,0l0,-31.16l13.05,0c8.49,0 13,3.93 13,11.14c0,4.99 -2.28,8.35 -6.43,9.98l7.62,10.04l-7.8,0zm-0.09,-19.8c0,-3.93 -2.15,-5.97 -6.8,-5.97l-6.11,0l0,11.58l5.56,0c5.02,0 7.35,-2.3 7.35,-5.61z" fill="#003865" id="svg_6"/>
   <path d="m218.44,54.58c0,-9.5 6.57,-16.22 17.06,-16.22c10.13,0 17.11,6.45 17.11,16.22c0,9.46 -6.61,16.17 -17.11,16.17c-10.13,0 -17.06,-6.4 -17.06,-16.17zm27.47,0c0,-6.05 -4.02,-10.38 -10.41,-10.38c-6.06,0 -10.35,4.06 -10.35,10.38c0,6.01 4.01,10.34 10.35,10.34c6.12,0 10.41,-4.07 10.41,-10.34z" fill="#003865" id="svg_7"/>
   <path d="m256.58,52.02l14.74,0l0,5.52l-14.74,0l0,-5.52z" fill="#003865" id="svg_8"/>
   <path d="m301.7,50.16c0,7.87 -4.79,11.54 -13.73,11.54l-5.66,0l0,8.44l-6.43,0l0,-31.16l12.82,0c8.49,0 13,3.85 13,11.18zm-6.75,0.18c0,-3.93 -2.05,-5.97 -6.8,-5.97l-5.84,0l0,11.98l5.34,0c5.06,0 7.3,-2.26 7.3,-6.01z" fill="#003865" id="svg_9"/>
   <path d="m324.1,64.22l-14.64,0l-2.74,5.92l-6.89,0l15.19,-31.2l3.52,0l15.23,31.2l-6.93,0l-2.74,-5.92zm-12.54,-5.09l10.44,0l-5.24,-11.8l-5.2,11.8z" fill="#003865" id="svg_10"/>
   <path d="m357.23,70.14l-6.39,-8.84l-0.87,0l-5.75,0l0,8.84l-6.43,0l0,-31.16l13.05,0c8.48,0 13,3.93 13,11.14c0,4.99 -2.28,8.35 -6.43,9.98l7.62,10.04l-7.8,0zm-0.1,-19.8c0,-3.93 -2.14,-5.97 -6.79,-5.97l-6.12,0l0,11.58l5.57,0c5.02,0 7.34,-2.3 7.34,-5.61z" fill="#003865" id="svg_11"/>
  </g>
  <g id="svg_12">
   <path d="m124.74,85.27c0,-3.74 2.41,-6.02 6.34,-6.02c2.42,0 4.16,0.87 5.33,2.24l-1.88,1.54c-0.71,-0.94 -1.83,-1.56 -3.38,-1.56c-2.4,0 -3.88,1.41 -3.88,3.8c0,2.37 1.48,3.87 3.88,3.87c1.55,0 2.67,-0.61 3.38,-1.55l1.88,1.54c-1.17,1.35 -2.83,2.21 -5.33,2.21c-3.93,0 -6.34,-2.33 -6.34,-6.07z" fill="#ffffff" id="svg_13"/>
   <path d="m137.02,85.3c0,-3.55 2.48,-6.05 6.45,-6.05c3.83,0 6.47,2.41 6.47,6.05c0,3.53 -2.5,6.04 -6.47,6.04c-3.83,0 -6.45,-2.39 -6.45,-6.04zm10.38,0c0,-2.26 -1.52,-3.88 -3.93,-3.88c-2.29,0 -3.91,1.52 -3.91,3.88c0,2.25 1.51,3.86 3.91,3.86c2.31,0 3.93,-1.52 3.93,-3.86z" fill="#ffffff" id="svg_14"/>
   <path d="m162.65,79.48l0,11.63l-1.21,0l-7.29,-7.21l0,7.21l-2.41,0l0,-11.63l1.19,0l7.31,7.21l0,-7.21l2.41,0z" fill="#ffffff" id="svg_15"/>
   <path d="m165,79.48l8.9,0l0,2.01l-6.52,0l0,3.53l5.57,0l0,2.01l-5.57,0l0,4.08l-2.38,0l0,-11.63z" fill="#ffffff" id="svg_16"/>
   <path d="m175.32,79.48l8.88,0l0,2.01l-6.49,0l0,2.99l5.42,0l0,1.94l-5.42,0l0,2.67l6.85,0l0,2.02l-9.24,0l0,-11.63z" fill="#ffffff" id="svg_17"/>
   <path d="m193.64,91.11l-2.42,-3.3l-0.32,0l-2.18,0l0,3.3l-2.43,0l0,-11.63l4.93,0c3.21,0 4.92,1.47 4.92,4.16c0,1.86 -0.86,3.11 -2.43,3.72l2.88,3.75l-2.95,0zm-0.04,-7.39c0,-1.47 -0.81,-2.23 -2.57,-2.23l-2.31,0l0,4.32l2.11,0c1.89,0 2.77,-0.86 2.77,-2.09z" fill="#ffffff" id="svg_18"/>
   <path d="m197.99,79.48l8.88,0l0,2.01l-6.48,0l0,2.99l5.41,0l0,1.94l-5.41,0l0,2.67l6.85,0l0,2.02l-9.24,0l0,-11.63l-0.01,0z" fill="#ffffff" id="svg_19"/>
   <path d="m219.88,79.48l0,11.63l-1.2,0l-7.3,-7.21l0,7.21l-2.41,0l0,-11.63l1.19,0l7.31,7.21l0,-7.21l2.41,0z" fill="#ffffff" id="svg_20"/>
   <path d="m221.7,85.27c0,-3.74 2.41,-6.02 6.34,-6.02c2.42,0 4.16,0.87 5.33,2.24l-1.88,1.54c-0.7,-0.94 -1.82,-1.56 -3.38,-1.56c-2.39,0 -3.88,1.41 -3.88,3.8c0,2.37 1.49,3.87 3.88,3.87c1.56,0 2.68,-0.61 3.38,-1.55l1.88,1.54c-1.17,1.35 -2.83,2.21 -5.33,2.21c-3.93,0 -6.34,-2.33 -6.34,-6.07z" fill="#ffffff" id="svg_21"/>
   <path d="m234.75,79.48l8.88,0l0,2.01l-6.49,0l0,2.99l5.42,0l0,1.94l-5.42,0l0,2.67l6.85,0l0,2.02l-9.24,0l0,-11.63z" fill="#ffffff" id="svg_22"/>
   <path d="m259.85,89.09l0,2.02l-9.43,0l0,-0.55c0.17,-1.88 1.38,-3.26 3.98,-4.85c1.31,-0.8 2.93,-1.64 2.91,-2.92c-0.01,-0.98 -0.89,-1.48 -2,-1.48c-1.41,0 -2.44,0.87 -2.48,2.19l0,0.2l-2.27,0l0,-0.38c0.01,-2.47 1.94,-4.07 4.82,-4.07c2.5,0 4.42,1.17 4.42,3.48c0,2.04 -1.61,3.3 -4.14,4.57c-1.31,0.66 -2.07,1.18 -2.5,1.79l6.69,0z" fill="#ffffff" id="svg_23"/>
   <path d="m261.06,85.3c0,-3.79 2.11,-6.05 5.55,-6.05c3.44,0 5.56,2.26 5.56,6.05c0,3.78 -2.12,6.04 -5.56,6.04c-3.44,0 -5.55,-2.26 -5.55,-6.04zm8.64,0c0,-2.47 -1.19,-3.91 -3.09,-3.91c-1.91,0 -3.08,1.44 -3.08,3.91c0,2.46 1.17,3.9 3.08,3.9c1.9,-0.01 3.09,-1.44 3.09,-3.9z" fill="#ffffff" id="svg_24"/>
   <path d="m282.62,89.09l0,2.02l-9.43,0l0,-0.55c0.17,-1.88 1.38,-3.26 3.98,-4.85c1.31,-0.8 2.93,-1.64 2.91,-2.92c-0.01,-0.98 -0.89,-1.48 -2,-1.48c-1.41,0 -2.44,0.87 -2.48,2.19l0,0.2l-2.27,0l0,-0.38c0.01,-2.47 1.94,-4.07 4.82,-4.07c2.5,0 4.42,1.17 4.42,3.48c0,2.04 -1.61,3.3 -4.14,4.57c-1.31,0.66 -2.07,1.18 -2.5,1.79l6.69,0z" fill="#ffffff" id="svg_25"/>
   <path d="m294.51,87l0,1.96l-1.92,0l0,2.15l-2.39,0l0,-2.15l-6.57,0l0,-1.04l7.48,-8.51l1.48,0l0,7.59l1.92,0zm-4.23,0.1l0,-4.03l-3.5,4.03l3.5,0z" fill="#ffffff" id="svg_26"/>
  </g>
 </g>
</svg>